<svg width="40" height="40" viewBox="0 0 40 40" fill="none" xmlns="http://www.w3.org/2000/svg">
<rect width="40" height="40" rx="20" fill="#C6E5C6"/>
<g clip-path="url(#clip0_789_3661)">
<path d="M32 20C32 13.3726 26.6274 8 20 8C13.3726 8 8 13.3726 8 20C8 25.9895 12.3882 30.954 18.125 31.8542V23.4688H15.0781V20H18.125V17.3563C18.125 14.3488 19.9166 12.6875 22.6576 12.6875C23.9701 12.6875 25.3438 12.9219 25.3438 12.9219V15.875H23.8306C22.34 15.875 21.875 16.8001 21.875 17.75V20H25.2031L24.6711 23.4688H21.875V31.8542C27.6118 30.954 32 25.9895 32 20Z" fill="#266C12"/>
</g>
<defs>
<clipPath id="clip0_789_3661">
<rect width="24" height="24" fill="white" transform="translate(8 8)"/>
</clipPath>
</defs>
</svg>
