<svg width="40" height="40" viewBox="0 0 40 40" fill="none" xmlns="http://www.w3.org/2000/svg">
<rect width="40" height="40" rx="20" fill="#C6E5C6"/>
<path d="M12.3199 9.92188C11.0002 9.92188 9.91992 11.0021 9.91992 12.3219V27.6819C9.91992 29.0016 11.0002 30.0819 12.3199 30.0819H27.6799C28.9997 30.0819 30.0799 29.0016 30.0799 27.6819V12.3219C30.0799 11.0021 28.9997 9.92188 27.6799 9.92188H12.3199ZM12.3199 10.8819H15.4784C13.7642 12.6654 12.7999 14.9706 12.7999 17.3619C12.7999 19.8387 13.8128 22.2098 15.6368 24.005C15.6944 24.1058 15.7423 24.6 15.5215 25.1712C15.3823 25.5312 15.1038 26.0015 14.5662 26.1791C14.3598 26.2463 14.2255 26.4487 14.2399 26.6647C14.2543 26.8807 14.4131 27.063 14.6243 27.1062C16.0019 27.3799 16.894 26.9667 17.614 26.6403C18.262 26.3427 18.6898 26.1409 19.3474 26.4097C20.6914 26.9329 22.1215 27.2019 23.5999 27.2019C25.5649 27.2019 27.455 26.7222 29.1199 25.8162V27.6819C29.1199 28.4827 28.4808 29.1219 27.6799 29.1219H12.3199C11.519 29.1219 10.8799 28.4827 10.8799 27.6819V12.3219C10.8799 11.521 11.519 10.8819 12.3199 10.8819ZM23.8399 15.2019C24.1039 15.2019 24.3199 15.4179 24.3199 15.6819V20.0019C24.3199 20.2659 24.1039 20.4819 23.8399 20.4819C23.5759 20.4819 23.3599 20.2659 23.3599 20.0019V15.6819C23.3599 15.4179 23.5759 15.2019 23.8399 15.2019ZM16.6399 15.6819H19.0399C19.2127 15.6819 19.3763 15.7776 19.4627 15.9313C19.5443 16.08 19.5389 16.2671 19.4477 16.4159L17.5043 19.5219H19.0399C19.3039 19.5219 19.5199 19.7379 19.5199 20.0019C19.5199 20.2659 19.3039 20.4819 19.0399 20.4819H16.6399C16.4671 20.4819 16.3035 20.3861 16.2171 20.2325C16.1355 20.0837 16.1409 19.8966 16.2321 19.7478L18.1755 16.6419H16.6399C16.3759 16.6419 16.1599 16.4259 16.1599 16.1619C16.1599 15.8979 16.3759 15.6819 16.6399 15.6819ZM21.1999 17.1219C21.4927 17.1219 21.7661 17.2031 22.0109 17.3375C22.0973 17.2127 22.2319 17.1219 22.3999 17.1219C22.6639 17.1219 22.8799 17.3379 22.8799 17.6019V20.0019C22.8799 20.2659 22.6639 20.4819 22.3999 20.4819C22.2319 20.4819 22.0973 20.391 22.0109 20.2662C21.7661 20.4007 21.4927 20.4819 21.1999 20.4819C20.2735 20.4819 19.5199 19.7283 19.5199 18.8019C19.5199 17.8755 20.2735 17.1219 21.1999 17.1219ZM26.4799 17.1219C27.4063 17.1219 28.1599 17.8755 28.1599 18.8019C28.1599 19.7283 27.4063 20.4819 26.4799 20.4819C25.5535 20.4819 24.7999 19.7283 24.7999 18.8019C24.7999 17.8755 25.5535 17.1219 26.4799 17.1219ZM21.1999 18.0819C21.1501 18.0819 21.1015 18.0873 21.0546 18.0969C20.9608 18.116 20.8734 18.153 20.7968 18.2047C20.7202 18.2564 20.6544 18.3222 20.6027 18.3987C20.551 18.4753 20.5141 18.5627 20.4949 18.6566C20.4853 18.7035 20.4799 18.7521 20.4799 18.8019C20.4799 18.8517 20.4853 18.9003 20.4949 18.9472C20.5045 18.9941 20.518 19.0391 20.5362 19.0822C20.5544 19.1253 20.5769 19.1667 20.6027 19.205C20.6286 19.2433 20.6583 19.2784 20.6909 19.3109C20.7234 19.3435 20.7585 19.3732 20.7968 19.3991C20.8734 19.4508 20.9608 19.4877 21.0546 19.5069C21.1015 19.5164 21.1501 19.5219 21.1999 19.5219C21.2497 19.5219 21.2983 19.5164 21.3452 19.5069C21.6737 19.4399 21.9199 19.1505 21.9199 18.8019C21.9199 18.4035 21.5983 18.0819 21.1999 18.0819ZM26.4799 18.0819C26.4301 18.0819 26.3815 18.0873 26.3346 18.0969C26.2877 18.1064 26.2427 18.1199 26.1996 18.1381C26.1565 18.1563 26.1151 18.1788 26.0768 18.2047C26.0385 18.2305 26.0034 18.2603 25.9709 18.2928C25.9058 18.3579 25.8525 18.4354 25.8162 18.5216C25.798 18.5646 25.7845 18.6096 25.7749 18.6566C25.7653 18.7035 25.7599 18.7521 25.7599 18.8019C25.7599 18.8517 25.7653 18.9003 25.7749 18.9472C25.7845 18.9941 25.798 19.0391 25.8162 19.0822C25.8344 19.1253 25.8569 19.1667 25.8827 19.205C25.9086 19.2433 25.9383 19.2784 25.9709 19.3109C26.0034 19.3435 26.0385 19.3732 26.0768 19.3991C26.1151 19.4249 26.1565 19.4474 26.1996 19.4656C26.2427 19.4838 26.2877 19.4973 26.3346 19.5069C26.3815 19.5164 26.4301 19.5219 26.4799 19.5219C26.5297 19.5219 26.5783 19.5164 26.6252 19.5069C26.9537 19.4399 27.1999 19.1505 27.1999 18.8019C27.1999 18.4035 26.8783 18.0819 26.4799 18.0819Z" fill="#266C12"/>
</svg>
