<svg width="28" height="20" viewBox="0 0 28 20" fill="none" xmlns="http://www.w3.org/2000/svg">
<g clip-path="url(#clip0_393_1047)">
<mask id="mask0_393_1047" style="mask-type:alpha" maskUnits="userSpaceOnUse" x="0" y="0" width="28" height="20">
<path d="M25.3333 0H2.66667C1.19391 0 0 1.19391 0 2.66667V17.3333C0 18.8061 1.19391 20 2.66667 20H25.3333C26.8061 20 28 18.8061 28 17.3333V2.66667C28 1.19391 26.8061 0 25.3333 0Z" fill="white"/>
</mask>
<g mask="url(#mask0_393_1047)">
<path d="M25.3333 0H2.66667C1.19391 0 0 1.19391 0 2.66667V17.3333C0 18.8061 1.19391 20 2.66667 20H25.3333C26.8061 20 28 18.8061 28 17.3333V2.66667C28 1.19391 26.8061 0 25.3333 0Z" fill="white"/>
<path fill-rule="evenodd" clip-rule="evenodd" d="M0 0H12V9.33333H0V0Z" fill="#444379"/>
<path fill-rule="evenodd" clip-rule="evenodd" d="M1.33337 1.33325V2.66659H2.66671V1.33325H1.33337ZM4.00004 1.33325V2.66659H5.33337V1.33325H4.00004ZM6.66671 1.33325V2.66659H8.00004V1.33325H6.66671ZM9.33337 1.33325V2.66659H10.6667V1.33325H9.33337ZM8.00004 2.66659V3.99992H9.33337V2.66659H8.00004ZM5.33337 2.66659V3.99992H6.66671V2.66659H5.33337ZM2.66671 2.66659V3.99992H4.00004V2.66659H2.66671ZM1.33337 3.99992V5.33325H2.66671V3.99992H1.33337ZM4.00004 3.99992V5.33325H5.33337V3.99992H4.00004ZM6.66671 3.99992V5.33325H8.00004V3.99992H6.66671ZM9.33337 3.99992V5.33325H10.6667V3.99992H9.33337ZM1.33337 6.66658V7.99992H2.66671V6.66658H1.33337ZM4.00004 6.66658V7.99992H5.33337V6.66658H4.00004ZM6.66671 6.66658V7.99992H8.00004V6.66658H6.66671ZM9.33337 6.66658V7.99992H10.6667V6.66658H9.33337ZM8.00004 5.33325V6.66658H9.33337V5.33325H8.00004ZM5.33337 5.33325V6.66658H6.66671V5.33325H5.33337ZM2.66671 5.33325V6.66658H4.00004V5.33325H2.66671Z" fill="#A7B6E7"/>
<path fill-rule="evenodd" clip-rule="evenodd" d="M12 0V1.33333H28V0H12ZM12 2.66667V4H28V2.66667H12ZM12 5.33333V6.66667H28V5.33333H12ZM12 8V9.33333H28V8H12ZM0 10.6667V12H28V10.6667H0ZM0 13.3333V14.6667H28V13.3333H0ZM0 16V17.3333H28V16H0ZM0 18.6667V20H28V18.6667H0Z" fill="#ED4C49"/>
<path d="M25.3333 0.666748H2.66663C1.56206 0.666748 0.666626 1.56218 0.666626 2.66675V17.3334C0.666626 18.438 1.56206 19.3334 2.66663 19.3334H25.3333C26.4379 19.3334 27.3333 18.438 27.3333 17.3334V2.66675C27.3333 1.56218 26.4379 0.666748 25.3333 0.666748Z" stroke="black" stroke-opacity="0.1"/>
</g>
</g>
<defs>
<clipPath id="clip0_393_1047">
<rect width="28" height="20" fill="white"/>
</clipPath>
</defs>
</svg>
