<svg width="28" height="20" viewBox="0 0 28 20" fill="none" xmlns="http://www.w3.org/2000/svg">
<g clip-path="url(#clip0_393_1043)">
<mask id="mask0_393_1043" style="mask-type:alpha" maskUnits="userSpaceOnUse" x="0" y="0" width="28" height="20">
<path d="M25.3333 0H2.66667C1.19391 0 0 1.19391 0 2.66667V17.3333C0 18.8061 1.19391 20 2.66667 20H25.3333C26.8061 20 28 18.8061 28 17.3333V2.66667C28 1.19391 26.8061 0 25.3333 0Z" fill="white"/>
</mask>
<g mask="url(#mask0_393_1043)">
<path d="M25.3333 0H2.66667C1.19391 0 0 1.19391 0 2.66667V17.3333C0 18.8061 1.19391 20 2.66667 20H25.3333C26.8061 20 28 18.8061 28 17.3333V2.66667C28 1.19391 26.8061 0 25.3333 0Z" fill="#DC220D"/>
<path fill-rule="evenodd" clip-rule="evenodd" d="M14.0026 12.4399L11.216 13.9066L11.7493 10.8039L9.49597 8.60792L12.6106 8.15459L14.0026 5.33325L15.396 8.15459L18.5093 8.60792L16.256 10.8039L16.7893 13.9053" fill="#FFFF00"/>
<path d="M25.3333 0.666748H2.66663C1.56206 0.666748 0.666626 1.56218 0.666626 2.66675V17.3334C0.666626 18.438 1.56206 19.3334 2.66663 19.3334H25.3333C26.4379 19.3334 27.3333 18.438 27.3333 17.3334V2.66675C27.3333 1.56218 26.4379 0.666748 25.3333 0.666748Z" stroke="black" stroke-opacity="0.1"/>
</g>
</g>
<defs>
<clipPath id="clip0_393_1043">
<rect width="28" height="20" fill="white"/>
</clipPath>
</defs>
</svg>
