<svg width="28" height="24" viewBox="0 0 28 24" fill="none" xmlns="http://www.w3.org/2000/svg">
<path fill-rule="evenodd" clip-rule="evenodd" d="M16.2121 5.68636L16.251 6.01665H19.433C19.7429 6.01665 19.9941 6.26782 19.9941 6.57768V23.0349C19.9941 23.3447 19.7429 23.5959 19.433 23.5959H1.10571C0.795849 23.5959 0.544678 23.3447 0.544678 23.0349V6.57768C0.544678 6.26782 0.795849 6.01665 1.10571 6.01665H4.28771L4.3266 5.68636C4.67617 2.71742 7.20852 0.40625 10.2694 0.40625C13.3302 0.40625 15.8626 2.71742 16.2121 5.68636ZM5.40143 6.01665H15.1373L15.0638 5.58047C14.6768 3.28369 12.6753 1.52833 10.2694 1.52833C7.86341 1.52833 5.86189 3.28369 5.47491 5.58047L5.40143 6.01665ZM1.66676 22.4738H18.872V7.13873H16.2538V10.318C16.2538 10.6278 16.0026 10.879 15.6927 10.879C15.3828 10.879 15.1317 10.6278 15.1317 10.318V7.13873H5.40701V10.318C5.40701 10.6278 5.15584 10.879 4.84598 10.879C4.53611 10.879 4.28494 10.6278 4.28494 10.318V7.13873H1.66676V22.4738Z" fill="#007119" stroke="#007119" stroke-width="0.6"/>
<path d="M19.2459 15.3673C23.3773 15.3673 26.7264 12.0182 26.7264 7.88678C26.7264 3.7554 23.3773 0.40625 19.2459 0.40625C15.1145 0.40625 11.7654 3.7554 11.7654 7.88678C11.7654 12.0182 15.1145 15.3673 19.2459 15.3673Z" fill="#007119"/>
<path d="M18.3083 11.629V8.8484H15.5059V6.92901H18.3083V4.14844H20.1766V6.92901H22.9863V8.8484H20.1766V11.629H18.3083Z" fill="white"/>
</svg>
