<svg width="456" height="461" viewBox="0 0 456 461" fill="none" xmlns="http://www.w3.org/2000/svg">
<path d="M227.997 0.125C231.534 0.125 235.117 0.208313 238.64 0.369189L238.549 2.38014C235.054 2.21639 231.503 2.13595 228.011 2.13595L227.997 0.125ZM249.259 1.11324C252.776 1.44074 256.333 1.85729 259.833 2.34854L259.549 4.33364C256.077 3.84527 252.551 3.43446 249.066 3.10696L249.259 1.11324ZM270.334 4.0837C273.816 4.74445 277.319 5.49425 280.748 6.31586L280.29 8.26649C276.892 7.45349 273.418 6.70943 269.969 6.05444L270.334 4.0837ZM291.049 9.0364C294.449 10.0218 297.87 11.1019 301.21 12.2453L300.572 14.1413C297.26 13.0095 293.871 11.9408 290.499 10.964L291.049 9.0364ZM311.235 15.9311C314.527 17.2353 317.836 18.6373 321.071 20.0966L320.259 21.9266C317.053 20.4902 313.772 19.0883 310.508 17.7955L311.235 15.9311ZM330.7 24.7247C333.855 26.3335 337.016 28.0399 340.098 29.8009L339.118 31.5447C336.062 29.8009 332.927 28.0974 329.8 26.5145L330.7 24.7247ZM349.251 35.3138C352.247 37.2156 355.231 39.215 358.136 41.2519L356.997 42.8951C354.123 40.8841 351.162 38.8962 348.191 37.0116L349.251 35.3138ZM366.734 47.6122C369.536 49.7869 372.327 52.0536 375.027 54.3547L373.745 55.8859C371.068 53.6049 368.303 51.3555 365.523 49.2038L366.734 47.6122ZM383.001 61.4792C385.589 63.9009 388.158 66.4204 390.636 68.9628L389.212 70.3676C386.757 67.8453 384.208 65.3488 381.642 62.9472L383.001 61.4792ZM397.915 76.7969C400.273 79.4542 402.597 82.2006 404.827 84.9642L403.286 86.2283C401.076 83.4905 398.769 80.77 396.434 78.1356L397.915 76.7969ZM411.354 93.4418C413.456 96.3146 415.518 99.2592 417.48 102.212L415.828 103.33C413.883 100.4 411.841 97.4724 409.756 94.634L411.354 93.4418ZM423.193 111.253C425.018 114.295 426.798 117.427 428.481 120.558L426.735 121.512C425.067 118.412 423.318 115.307 421.492 112.29L423.193 111.253ZM433.331 130.099C434.869 133.305 436.347 136.585 437.731 139.866L435.903 140.653C434.533 137.413 433.055 134.158 431.543 130.983L433.331 130.099ZM441.67 149.803C442.903 153.141 444.076 156.557 445.153 159.953L443.259 160.562C442.191 157.198 441.032 153.811 439.81 150.507L441.67 149.803ZM448.157 170.257C449.071 173.705 449.92 177.21 450.675 180.691L448.735 181.119C447.986 177.672 447.146 174.187 446.238 170.777L448.157 170.257ZM452.714 191.229C453.303 194.736 453.821 198.31 454.251 201.858L452.278 202.102C451.854 198.592 451.341 195.047 450.754 191.568L452.714 191.229ZM455.297 212.539C455.564 216.09 455.749 219.698 455.866 223.266L453.873 223.324C453.77 219.787 453.588 216.211 453.323 212.694L455.297 212.539Z" fill="url(#paint0_linear_811_2340)"/>
<path d="M227.997 459.949C224.46 459.949 220.877 459.865 217.355 459.704L217.446 457.693C220.94 457.857 224.491 457.938 227.983 457.938L227.997 459.949ZM206.735 458.96C203.218 458.633 199.661 458.216 196.161 457.725L196.446 455.74C199.917 456.228 203.443 456.639 206.929 456.967L206.735 458.96ZM185.661 455.99C182.178 455.329 178.675 454.579 175.246 453.758L175.705 451.807C179.102 452.62 182.577 453.364 186.025 454.019L185.661 455.99ZM164.945 451.037C161.545 450.052 158.111 448.972 154.784 447.828L155.422 445.932C158.734 447.064 162.123 448.133 165.495 449.109L164.945 451.037ZM144.76 444.142C141.468 442.838 138.158 441.436 134.923 439.977L135.735 438.147C138.942 439.583 142.222 440.982 145.486 442.278L144.76 444.142ZM125.295 435.349C122.139 433.74 118.978 432.034 115.897 430.273L116.876 428.529C119.932 430.273 123.068 431.976 126.195 433.559L125.295 435.349ZM106.744 424.76C103.748 422.858 100.763 420.859 97.8583 418.822L98.9974 417.178C101.871 419.189 104.833 421.177 107.803 423.062L106.744 424.76ZM89.2606 412.461C86.4583 410.287 83.6674 408.02 80.9676 405.719L82.2491 404.188C84.9261 406.469 87.6914 408.718 90.4709 410.87L89.2606 412.461ZM72.9936 398.594C70.4048 396.173 67.8361 393.653 65.3584 391.125L66.7824 389.72C69.2372 392.243 71.7861 394.739 74.352 397.141L72.9936 398.594ZM58.0793 383.277C55.7213 380.619 53.3974 377.873 51.1675 375.109L52.7082 373.845C54.9182 376.583 57.2249 379.304 59.5602 381.938L58.0793 383.277ZM44.6402 366.632C42.5385 363.759 40.4766 360.814 38.5145 357.861L40.1662 356.744C42.1113 359.674 44.1532 362.601 46.2379 365.44L44.6402 366.632ZM32.8016 348.82C30.9762 345.778 29.1962 342.647 27.5132 339.515L29.2589 338.562C30.9277 341.661 32.6906 344.767 34.5018 347.783L32.8016 348.82ZM22.6632 329.975C21.1254 326.769 19.6474 323.488 18.2633 320.207L20.0916 319.42C21.4614 322.661 22.9395 325.916 24.4517 329.09L22.6632 329.975ZM14.3247 310.27C13.0916 306.932 11.9183 303.517 10.8418 300.121L12.7356 299.512C13.8035 302.876 14.9626 306.263 16.1844 309.567L14.3247 310.27ZM7.83726 289.816C6.9231 286.369 6.07443 282.864 5.31975 279.382L7.25914 278.954C8.00813 282.402 8.84825 285.886 9.75672 289.296L7.83726 289.816ZM3.28068 268.845C2.69117 265.337 2.17286 261.763 1.74283 258.215L3.7164 257.971C4.14074 261.482 4.65335 265.027 5.24001 268.506L3.28068 268.845ZM0.697667 247.534C0.429967 243.984 0.244857 240.375 0.142334 236.807L2.13584 236.75C2.23836 240.286 2.42062 243.863 2.68548 247.379L0.697667 247.534Z" fill="url(#paint1_linear_811_2340)"/>
<path d="M227.997 460.003V457.857C352.54 457.857 453.861 355.646 453.861 230.016H456C456 291.447 432.283 349.205 389.22 392.647C346.158 436.089 288.904 460.003 227.997 460.003Z" fill="url(#paint2_linear_811_2340)"/>
<path d="M2.13874 229.998H0C0 168.564 23.717 110.806 66.7824 67.3641C109.848 23.9217 167.101 0 227.997 0V2.15747C103.46 2.15747 2.13874 104.366 2.13874 229.998Z" fill="url(#paint3_linear_811_2340)"/>
<defs>
<linearGradient id="paint0_linear_811_2340" x1="228" y1="460.003" x2="228" y2="0" gradientUnits="userSpaceOnUse">
<stop offset="0.0001" stop-color="#54BA00"/>
<stop offset="0.0002" stop-color="#5BBE04"/>
<stop offset="0.894097" stop-color="#A5E72B"/>
</linearGradient>
<linearGradient id="paint1_linear_811_2340" x1="228" y1="460.003" x2="228" y2="0" gradientUnits="userSpaceOnUse">
<stop offset="0.0001" stop-color="#54BA00"/>
<stop offset="0.0002" stop-color="#5BBE04"/>
<stop offset="0.894097" stop-color="#A5E72B"/>
</linearGradient>
<linearGradient id="paint2_linear_811_2340" x1="228" y1="460.003" x2="228" y2="0" gradientUnits="userSpaceOnUse">
<stop offset="0.0001" stop-color="#54BA00"/>
<stop offset="0.0002" stop-color="#5BBE04"/>
<stop offset="0.894097" stop-color="#A5E72B"/>
</linearGradient>
<linearGradient id="paint3_linear_811_2340" x1="228" y1="460.003" x2="228" y2="0" gradientUnits="userSpaceOnUse">
<stop offset="0.0001" stop-color="#54BA00"/>
<stop offset="0.0002" stop-color="#5BBE04"/>
<stop offset="0.894097" stop-color="#A5E72B"/>
</linearGradient>
</defs>
</svg>
