<svg width="34" height="24" viewBox="0 0 34 24" fill="none" xmlns="http://www.w3.org/2000/svg">
<g clip-path="url(#clip0_789_2972)">
<mask id="mask0_789_2972" style="mask-type:alpha" maskUnits="userSpaceOnUse" x="0" y="0" width="34" height="24">
<path d="M30.5999 0H3.39995C1.63264 0 0.199951 1.43269 0.199951 3.2V20.8C0.199951 22.5673 1.63264 24 3.39995 24H30.5999C32.3673 24 33.7999 22.5673 33.7999 20.8V3.2C33.7999 1.43269 32.3673 0 30.5999 0Z" fill="white"/>
</mask>
<g mask="url(#mask0_789_2972)">
<path d="M30.5999 0H3.39995C1.63264 0 0.199951 1.43269 0.199951 3.2V20.8C0.199951 22.5673 1.63264 24 3.39995 24H30.5999C32.3673 24 33.7999 22.5673 33.7999 20.8V3.2C33.7999 1.43269 32.3673 0 30.5999 0Z" fill="#E02600"/>
<path fill-rule="evenodd" clip-rule="evenodd" d="M8.99669 11.5649L6.64469 12.8017L7.09269 10.1825L5.19189 8.32648L7.82069 7.94728L8.99669 5.56328L10.1711 7.94728L12.7999 8.32648L10.8959 10.1825L11.3471 12.8001L8.99669 11.5649ZM14.5999 4.79688H16.1999V6.39688H14.5999V4.79688ZM16.1999 7.99688H17.7999V9.59688H16.1999V7.99688ZM16.1999 11.1969H17.7999V12.7969H16.1999V11.1969ZM14.5999 14.3969H16.1999V15.9969H14.5999V14.3969Z" fill="#FFE000"/>
<path d="M30.6 0.796875H3.4C2.07452 0.796875 1 1.87139 1 3.19688V20.7969C1 22.1224 2.07452 23.1969 3.4 23.1969H30.6C31.9255 23.1969 33 22.1224 33 20.7969V3.19688C33 1.87139 31.9255 0.796875 30.6 0.796875Z" stroke="black" stroke-opacity="0.1"/>
</g>
</g>
<defs>
<clipPath id="clip0_789_2972">
<rect width="33.6" height="24" fill="white" transform="translate(0.199951)"/>
</clipPath>
</defs>
</svg>
