<svg width="25" height="24" viewBox="0 0 25 24" fill="none" xmlns="http://www.w3.org/2000/svg">
<path d="M2.09997 1.60164C1.99396 1.60014 1.88871 1.61973 1.79033 1.65926C1.69196 1.69879 1.60242 1.75748 1.52693 1.83191C1.45143 1.90635 1.39148 1.99505 1.35056 2.09285C1.30965 2.19066 1.28857 2.29562 1.28857 2.40164C1.28857 2.50766 1.30965 2.61263 1.35056 2.71043C1.39148 2.80824 1.45143 2.89693 1.52693 2.97137C1.60242 3.04581 1.69196 3.10449 1.79033 3.14403C1.88871 3.18356 1.99396 3.20314 2.09997 3.20164H3.60309C3.78381 3.20164 3.93462 3.31481 3.98591 3.48914L7.39528 15.0798C7.69451 16.0971 8.63549 16.8016 9.69684 16.8016H18.4781C19.5568 16.8016 20.5093 16.0726 20.7937 15.0329L22.8718 7.41258C22.9043 7.29387 22.9089 7.16928 22.8853 7.0485C22.8618 6.92772 22.8106 6.814 22.736 6.71619C22.6613 6.61838 22.565 6.53911 22.4547 6.48456C22.3444 6.43001 22.223 6.40163 22.1 6.40164H6.51091L5.52184 3.03758C5.52132 3.03758 5.5208 3.03758 5.52028 3.03758C5.27077 2.18951 4.48637 1.60164 3.60309 1.60164H2.09997ZM10.1 18.4016C9.67562 18.4016 9.26866 18.5702 8.9686 18.8703C8.66854 19.1703 8.49997 19.5773 8.49997 20.0016C8.49997 20.426 8.66854 20.833 8.9686 21.133C9.26866 21.4331 9.67562 21.6016 10.1 21.6016C10.5243 21.6016 10.9313 21.4331 11.2313 21.133C11.5314 20.833 11.7 20.426 11.7 20.0016C11.7 19.5773 11.5314 19.1703 11.2313 18.8703C10.9313 18.5702 10.5243 18.4016 10.1 18.4016ZM18.1 18.4016C17.6756 18.4016 17.2687 18.5702 16.9686 18.8703C16.6685 19.1703 16.5 19.5773 16.5 20.0016C16.5 20.426 16.6685 20.833 16.9686 21.133C17.2687 21.4331 17.6756 21.6016 18.1 21.6016C18.5243 21.6016 18.9313 21.4331 19.2313 21.133C19.5314 20.833 19.7 20.426 19.7 20.0016C19.7 19.5773 19.5314 19.1703 19.2313 18.8703C18.9313 18.5702 18.5243 18.4016 18.1 18.4016Z" fill="#8E8E93"/>
</svg>
