<svg width="24" height="24" viewBox="0 0 24 24" fill="none" xmlns="http://www.w3.org/2000/svg">
<path fill-rule="evenodd" clip-rule="evenodd" d="M5.73687 4.04407C4.82911 5.03522 3.98465 6.27319 4.00022 7.95184C4.01635 9.69211 4.9615 12.1817 8.38991 15.6101C11.8183 19.0385 14.3079 19.9837 16.0482 19.9998C17.7268 20.0154 18.9648 19.1709 19.9559 18.2632L16.815 15.1222L15.5652 16.3721C15.2678 16.6694 14.8162 16.749 14.4352 16.5712C12.7898 15.8034 11.3379 14.8528 10.2407 13.7663C8.62927 12.1706 7.76518 10.446 7.40169 9.50095C7.25983 9.1321 7.34849 8.7143 7.62793 8.43486L8.8778 7.185L5.73687 4.04407ZM4.35108 2.59682C5.10565 1.78707 6.34721 1.82597 7.08531 2.56407L10.3468 5.82559C11.0976 6.57637 11.0976 7.79362 10.3468 8.5444L9.52269 9.36853C9.90516 10.1663 10.5821 11.2897 11.6479 12.3451C12.415 13.1048 13.4391 13.8235 14.6566 14.4523L15.4556 13.6532C16.2064 12.9024 17.4236 12.9024 18.1744 13.6532L21.4359 16.9147C22.174 17.6528 22.2129 18.8944 21.4032 19.649C20.2746 20.7006 18.5313 22.0229 16.0296 21.9997C13.5419 21.9766 10.579 20.6276 6.9757 17.0243C3.3724 13.421 2.02337 10.4581 2.0003 7.97038C1.97711 5.46866 3.29938 3.72542 4.35108 2.59682Z" fill="white"/>
</svg>
