<svg width="44" height="44" viewBox="0 0 44 44" fill="none" xmlns="http://www.w3.org/2000/svg">
<rect width="44" height="44" rx="22" fill="#D6FFDB"/>
<path d="M20.08 9.20312C19.1596 9.20312 18.2599 9.29731 17.3938 9.47188C17.2273 9.50536 17.081 9.60358 16.987 9.74494C16.893 9.88629 16.859 10.0592 16.8925 10.2256C16.926 10.392 17.0242 10.5384 17.1656 10.6324C17.3069 10.7264 17.4798 10.7604 17.6463 10.7269C18.4313 10.5686 19.2468 10.4831 20.08 10.4831C26.8064 10.4831 32.24 15.9167 32.24 22.6431C32.24 24.7604 31.698 26.7414 30.7513 28.4694C29.4604 27.6113 28.1529 26.7329 27.8575 26.5519C27.3391 26.2344 26.5838 26.2814 25.8363 26.6769C25.4388 26.8862 24.2391 27.5676 23.64 27.9094C23.1088 27.5331 21.8735 26.5835 19.965 24.6744C18.0559 22.7659 17.1076 21.5305 16.7325 21.0006C17.0736 20.4022 17.7564 19.2031 17.965 18.8056C18.3657 18.0453 18.4095 17.2845 18.0838 16.7719C17.7817 16.2957 15.0268 12.1181 14.7388 11.7206C14.2889 11.096 13.1961 10.8471 12.215 11.5319C12.1779 11.5575 8.51263 14.1926 8.56127 15.7344C8.69887 19.9795 12.8165 24.9614 16.2475 28.3931C19.6786 31.8261 24.6589 35.9449 28.92 36.0831H28.9488C30.4579 36.0831 33.0807 32.4627 33.105 32.4269C33.4103 31.993 33.5541 31.493 33.5125 31.0194C33.4709 30.5458 33.2518 30.1381 32.9113 29.8994C32.8297 29.8422 32.1794 29.4174 31.82 29.1769C32.8992 27.2433 33.52 25.0158 33.52 22.6431C33.52 15.2255 27.4976 9.20312 20.08 9.20312ZM22.0388 16.2431C20.8861 16.2431 20.08 16.9754 20.08 18.0269V18.0419H21.0225V18.0269C21.0225 17.4541 21.4194 17.0681 22.0075 17.0681C22.5605 17.0681 22.9663 17.4272 22.9663 17.9219C22.9663 18.3193 22.7749 18.6117 22.0075 19.3906L20.135 21.3056V22.0031H24.0363V21.1506H21.5125V21.0844L22.6888 19.9044C23.643 18.9617 23.9513 18.4629 23.9513 17.8594C23.9513 16.9211 23.1485 16.2431 22.0388 16.2431ZM27.3038 16.3831C26.3105 17.8782 25.5213 19.1288 25.015 20.0594V20.9556H27.76V22.0031H28.7225V20.9556H29.4813V20.1056H28.7225V16.3831H27.3038ZM27.7213 17.2006H27.775V20.1294H25.945V20.0719C26.5991 18.9192 27.1837 17.9949 27.7213 17.2006Z" fill="#00A200"/>
</svg>
