<svg width="369" height="12" viewBox="0 0 369 12" fill="none" xmlns="http://www.w3.org/2000/svg">
<path d="M21.8642 5.75866C20.8736 5.77124 19.9062 5.4585 19.1104 4.8684C18.4728 4.40084 17.9957 3.74718 17.7449 2.99734C17.0961 3.99989 16.1486 4.77318 15.0363 5.20791C14.0731 4.82715 13.2006 4.24826 12.4754 3.50873C11.7501 2.76921 11.1883 1.88555 10.8265 0.915039C9.27227 3.45002 6.57134 4.68733 4.25516 5.36634C2.86653 5.74262 1.43815 5.95282 0 5.99254C1.4391 6.03334 2.86795 6.24868 4.25516 6.63383C6.57134 7.26003 9.27227 8.52752 10.8265 11.0851C11.189 10.1132 11.7509 9.2279 12.4759 8.486C13.2009 7.7441 14.073 7.16203 15.0363 6.77718C16.1466 7.22288 17.0924 8.00007 17.7449 9.00283C17.9275 8.43042 18.2489 7.91207 18.6804 7.49392C19.5444 6.66864 20.6998 6.21845 21.8944 6.24151L21.8642 5.75866Z" fill="#005A00"/>
<path d="M17.8944 6.89992L179.5 6.8999L179.5 5.0999L17.8944 5.09992L17.8944 6.89992Z" fill="#005A00"/>
<path d="M184.492 0C183.305 0.00162735 182.146 0.354904 181.161 1.01518C180.175 1.67546 179.407 2.6131 178.954 3.7096C178.502 4.8061 178.384 6.01223 178.616 7.17558C178.849 8.33892 179.421 9.40725 180.26 10.2455C181.1 11.0838 182.169 11.6545 183.333 11.8853C184.496 12.1162 185.702 11.9969 186.798 11.5425C187.894 11.0881 188.83 10.3191 189.489 9.33257C190.148 8.34605 190.5 7.18634 190.5 6C190.498 4.40795 189.864 2.88184 188.737 1.75686C187.611 0.631876 186.084 -1.49377e-06 184.492 0ZM184.492 9.87654C183.717 9.87492 182.961 9.64377 182.317 9.2123C181.674 8.78083 181.173 8.1684 180.878 7.45239C180.583 6.73638 180.507 5.94893 180.659 5.18951C180.811 4.4301 181.184 3.7328 181.733 3.18572C182.281 2.63865 182.979 2.26634 183.739 2.11584C184.498 1.96534 185.286 2.0434 186.001 2.34016C186.717 2.63693 187.328 3.13907 187.758 3.78315C188.188 4.42723 188.418 5.18435 188.418 5.95885C188.416 6.99864 188.001 7.9951 187.265 8.72958C186.529 9.46406 185.532 9.87655 184.492 9.87654Z" fill="#005A00"/>
<path d="M347.136 5.75866C348.126 5.77124 349.094 5.4585 349.89 4.8684C350.527 4.40084 351.004 3.74718 351.255 2.99734C351.904 3.99989 352.851 4.77318 353.964 5.20791C354.927 4.82715 355.799 4.24826 356.525 3.50873C357.25 2.76921 357.812 1.88555 358.174 0.915039C359.728 3.45002 362.429 4.68733 364.745 5.36634C366.133 5.74262 367.562 5.95282 369 5.99254C367.561 6.03334 366.132 6.24868 364.745 6.63383C362.429 7.26003 359.728 8.52752 358.174 11.0851C357.811 10.1132 357.249 9.2279 356.524 8.486C355.799 7.7441 354.927 7.16203 353.964 6.77718C352.853 7.22288 351.908 8.00007 351.255 9.00283C351.072 8.43042 350.751 7.91207 350.32 7.49392C349.456 6.66864 348.3 6.21845 347.106 6.24151L347.136 5.75866Z" fill="#005A00"/>
<path d="M351.106 6.89992L189.5 6.8999L189.5 5.0999L351.106 5.09992L351.106 6.89992Z" fill="#005A00"/>
</svg>
