<svg width="157" height="12" viewBox="0 0 157 12" fill="none" xmlns="http://www.w3.org/2000/svg">
<path d="M21.8642 5.75854C20.8736 5.77111 19.9062 5.45837 19.1104 4.86828C18.4728 4.40072 17.9957 3.74705 17.7449 2.99722C17.0961 3.99977 16.1486 4.77306 15.0363 5.20778C14.0731 4.82703 13.2006 4.24814 12.4754 3.50861C11.7501 2.76909 11.1883 1.88543 10.8265 0.914917C9.27227 3.4499 6.57134 4.68721 4.25516 5.36622C2.86653 5.7425 1.43815 5.9527 0 5.99242C1.4391 6.03322 2.86795 6.24856 4.25516 6.63371C6.57134 7.25991 9.27227 8.5274 10.8265 11.085C11.189 10.1131 11.7509 9.22778 12.4759 8.48588C13.2009 7.74398 14.073 7.16191 15.0363 6.77706C16.1466 7.22276 17.0924 7.99995 17.7449 9.00271C17.9275 8.4303 18.2489 7.91195 18.6804 7.49379C19.5444 6.66851 20.6998 6.21833 21.8944 6.24139L21.8642 5.75854Z" fill="#005A00"/>
<path d="M17.8944 6.90003L73.5 6.90002L73.5 5.10002L17.8944 5.10003L17.8944 6.90003Z" fill="#005A00"/>
<path d="M78.4918 0C77.3055 0.00162735 76.1462 0.354904 75.1606 1.01518C74.175 1.67546 73.4072 2.6131 72.9544 3.7096C72.5015 4.8061 72.3839 6.01223 72.6163 7.17558C72.8487 8.33892 73.4208 9.40725 74.2603 10.2455C75.0997 11.0838 76.1689 11.6545 77.3325 11.8853C78.4962 12.1162 79.7021 11.9969 80.798 11.5425C81.8939 11.0881 82.8305 10.3191 83.4894 9.33257C84.1483 8.34605 84.5 7.18634 84.5 6C84.4978 4.40795 83.8638 2.88184 82.7373 1.75686C81.6108 0.631876 80.0838 -1.49377e-06 78.4918 0ZM78.4918 9.87654C77.7173 9.87492 76.9607 9.64377 76.3175 9.2123C75.6743 8.78083 75.1735 8.1684 74.8782 7.45239C74.5829 6.73638 74.5065 5.94893 74.6586 5.18951C74.8107 4.4301 75.1845 3.7328 75.7327 3.18572C76.2809 2.63865 76.979 2.26634 77.7387 2.11584C78.4985 1.96534 79.2858 2.0434 80.0011 2.34016C80.7165 2.63693 81.3279 3.13907 81.758 3.78315C82.1882 4.42723 82.4177 5.18435 82.4177 5.95885C82.4155 6.99864 82.001 7.9951 81.2649 8.72958C80.5289 9.46406 79.5316 9.87655 78.4918 9.87654Z" fill="#005A00"/>
<path d="M135.136 5.75854C136.126 5.77111 137.094 5.45837 137.89 4.86828C138.527 4.40072 139.004 3.74705 139.255 2.99722C139.904 3.99977 140.851 4.77306 141.964 5.20778C142.927 4.82703 143.799 4.24814 144.525 3.50861C145.25 2.76909 145.812 1.88543 146.174 0.914917C147.728 3.4499 150.429 4.68721 152.745 5.36622C154.133 5.7425 155.562 5.9527 157 5.99242C155.561 6.03322 154.132 6.24856 152.745 6.63371C150.429 7.25991 147.728 8.5274 146.174 11.085C145.811 10.1131 145.249 9.22778 144.524 8.48588C143.799 7.74398 142.927 7.16191 141.964 6.77706C140.853 7.22276 139.908 7.99995 139.255 9.00271C139.072 8.4303 138.751 7.91195 138.32 7.49379C137.456 6.66851 136.3 6.21833 135.106 6.24139L135.136 5.75854Z" fill="#005A00"/>
<path d="M139.106 6.90003L83.5 6.90002L83.5 5.10002L139.106 5.10003L139.106 6.90003Z" fill="#005A00"/>
</svg>
